<svg xmlns="http://www.w3.org/2000/svg" viewBox="1197 728 42 42">
  <defs>
    <style>
      .cls-1, .cls-3 {
        fill: #fff;
      }

      .cls-1 {
        opacity: 0.1;
      }

      .cls-2 {
        opacity: 0.8;
      }
    </style>
  </defs>
  <g id="Group_1066" data-name="Group 1066" transform="translate(-15 -26)">
    <circle id="Ellipse_1" data-name="Ellipse 1" class="cls-1" cx="21" cy="21" r="21" transform="translate(1212 754)"/>
    <g id="telegram" class="cls-2" transform="translate(1219.64 746.6)">
      <path id="XMLID_497_" class="cls-3" d="M.406,28.99,5.7,30.966l2.049,6.589a.623.623,0,0,0,.99.3l2.95-2.405a.88.88,0,0,1,1.073-.03l5.321,3.863a.624.624,0,0,0,.977-.377l3.9-18.751a.624.624,0,0,0-.835-.709L.4,27.823A.624.624,0,0,0,.406,28.99Zm7.011.924,10.344-6.371a.18.18,0,0,1,.218.285L9.442,31.764a1.77,1.77,0,0,0-.548,1.059L8.6,34.978a.267.267,0,0,1-.522.038l-1.118-3.93A1.042,1.042,0,0,1,7.417,29.914Z" transform="translate(0 0)"/>
    </g>
  </g>
</svg>
